<svg width="32" height="32" viewBox="0 0 32 32" fill="none" xmlns="http://www.w3.org/2000/svg">
  <rect width="32" height="32" rx="6" fill="#10b981"/>
  <path d="M16 8C12 8 9 11 9 15C9 19 12 22 16 22C20 22 23 19 23 15C23 11 20 8 16 8Z" fill="white" opacity="0.95"/>
  <path d="M16 6C10 6 5 11 5 17C5 23 10 28 16 28C22 28 27 23 27 17C27 11 22 6 16 6ZM16 24C12 24 9 21 9 17C9 13 12 10 16 10C20 10 23 13 23 17C23 21 20 24 16 24Z" fill="white" opacity="0.8"/>
  <circle cx="16" cy="17" r="3" fill="white"/>
  <path d="M12 24L16 28L20 24" stroke="white" stroke-width="1.5" stroke-linecap="round" stroke-linejoin="round" fill="none"/>
</svg>
